<?xml version="1.0" standalone="no"?>
<!DOCTYPE svg PUBLIC "-//W3C//DTD SVG 1.1//EN" "http://www.w3.org/Graphics/SVG/1.1/DTD/svg11.dtd" >
<svg xmlns="http://www.w3.org/2000/svg">
<metadata>Generated by IcoMoon</metadata>
<defs>
<font id="perstar" horiz-adv-x="1024">
<font-face units-per-em="1024" ascent="960" descent="-64" />
<missing-glyph horiz-adv-x="1024" />
<glyph unicode="&#x20;" horiz-adv-x="512" d="" />
<glyph unicode="&#xe900;" glyph-name="behance" d="M924.8 676.4h-256.6v63.8h256.6v-63.8c0 0 0 0 0 0zM497.4 415c16.6-25.6 24.8-56.8 24.8-93.4 0-37.8-9.4-71.8-28.4-101.6-12-19.8-27-36.6-45-50-20.2-15.6-44.2-26.2-72-32-27.6-5.8-57.6-8.6-90-8.6h-286.8v637.2h307.8c77.6-1.2 132.6-23.8 165-67.8 19.4-27 29.2-59.6 29.2-97.2 0-39-9.8-70.2-29.4-93.8-11-13.2-27.2-25.4-48.6-36.2 32.4-12.2 57-30.8 73.4-56.6zM147 515.4h134.8c27.8 0 50.2 5.2 67.4 15.8s25.8 29.2 25.8 56c0 29.6-11.4 49.4-34.2 58.8-19.6 6.6-44.8 10-75.2 10h-118.6v-140.6zM388 330.8c0 33-13.6 56-40.6 68.2-15 7-36.4 10.6-63.8 10.8h-136.6v-169.8h134.6c27.6 0 49 3.6 64.6 11.2 27.8 14 41.8 40.4 41.8 79.6zM1020 434.4c3-20.8 4.6-51 4-90.6h-332.4c1.8-45.8 17.6-78 47.6-96.2 18.2-11.6 40-17.2 65.8-17.2 27.2 0 49.2 6.8 66.2 21 9.2 7.4 17.4 18 24.6 31.4h121.8c-3.2-27-17.8-54.6-44.2-82.4-40.8-44.4-98-66.6-171.6-66.6-60.8 0-114.4 18.8-160.8 56.2-46.4 37.6-69.6 98.4-69.6 182.8 0 79.2 20.8 139.8 62.8 182s96.4 63.2 163.2 63.2c39.6 0 75.4-7 107.4-21.4 31.8-14.2 58-36.8 78.8-67.6 18.6-27.2 30.8-58.8 36.4-94.6zM900 422.6c-2.2 31.8-12.8 55.8-31.8 72.2s-42.6 24.8-70.8 24.8c-30.6 0-54.4-8.8-71.2-26.2-17-17.4-27.4-40.8-31.8-70.6l205.6-0.2z" />
<glyph unicode="&#xe901;" glyph-name="bookmark" d="M810.6 345.6h-597.2c-9.4 0-17-7.6-17-17s7.6-17 17-17h597.4c9.4 0 17 7.6 17 17s-7.6 17-17.2 17zM588.8 431h221.8c9.4 0 17 7.6 17 17s-7.6 17-17 17h-221.8c-9.4 0-17-7.6-17-17s7.6-17 17-17zM588.8 550.4h221.8c9.4 0 17 7.6 17 17s-7.6 17-17 17h-221.8c-9.4 0-17-7.6-17-17s7.6-17 17-17zM588.8 669.8h221.8c9.4 0 17 7.6 17 17s-7.6 17-17 17h-221.8c-9.4 0-17-7.6-17-17s7.6-17 17-17zM810.6 140.8h-597.2c-9.4 0-17-7.6-17-17s7.6-17 17-17h597.4c9.4 0 17 7.6 17 17s-7.6 17-17.2 17zM213.4 209h239c9.4 0 17 7.6 17 17s-7.6 17-17 17h-239c-9.4 0-17-7.6-17-17-0.2-9.4 7.4-17 17-17zM810.6 243.2h-221.8c-9.4 0-17-7.6-17-17s7.6-17 17-17h221.8c9.4 0 17 7.6 17 17 0.2 9.4-7.4 17-17 17zM532.6 214c3 3.2 5 7.6 5 12.2 0 4.4-1.8 8.8-5 12-6.4 6.4-18.2 6.4-24.2 0.2-3-3.2-5-7.6-5-12.2 0-4.4 1.8-8.8 5-12.2 3.2-3 7.4-5 12.2-5 4.4 0 8.8 2 12 5zM930.2 891.8h-426.8v51.2c0 9.4-7.6 17-17 17h-273c-9.4 0-17-7.6-17-17v-51.2h-102.6c-9.4 0-17-7.6-17-17v-921.6c0-9.4 7.6-17 17-17h836.2c9.4 0 17 7.6 17 17v921.4c0.2 9.6-7.4 17.2-16.8 17.2zM230.4 874.6v51.2h239v-426.6l-109.2 82c-6 4.6-14.4 4.6-20.4 0l-109.2-82v375.4zM913-29.8h-802v887.4h85.4v-392.6c0-6.4 3.6-12.4 9.4-15.2s12.8-2.2 17.8 1.6l126.2 94.8 126.2-94.8c1.4-1 3-1.8 4.6-2.4 0.6-0.2 1.2-0.2 1.8-0.4 1-0.2 2-0.4 3.2-0.6 0.2 0 0.4-0.2 0.8-0.2 0.2 0 0.6 0.2 0.8 0.2 2.4 0.2 4.6 0.6 6.8 1.6 5.8 3 9.4 8.8 9.4 15.2v392.8h409.6v-887.4z" />
<glyph unicode="&#xe902;" glyph-name="compass" d="M529.4 803.4v20.2c29.8 7.8 52 34.6 52 67 0 38.2-31.2 69.4-69.4 69.4s-69.4-31.2-69.4-69.4c0-32.2 22.2-59.2 52-67v-20.2c-231.2-9.2-416.6-200-416.6-433.4 0.2-239.4 194.8-434 434-434s433.8 194.6 433.8 433.8c0 233.6-185.2 424.4-416.4 433.6zM477.2 890.6c0 19.2 15.6 34.8 34.8 34.8s34.8-15.6 34.8-34.8-15.6-34.8-34.8-34.8-34.8 15.6-34.8 34.8zM512-29.2c-220.2 0-399.2 179-399.2 399.2s179 399 399.2 399 399.2-179 399.2-399.2-179-399-399.2-399zM725.2 606.4l-294.6-147.2c-0.4-0.2-0.8-0.6-1.2-1-1.2-0.8-2-1.6-3-2.6s-1.8-1.8-2.6-3c-0.2-0.4-0.8-0.6-1-1.2l-147.2-294.6c-3.4-6.6-2-14.8 3.2-20 3.4-3.4 7.8-5 12.2-5 2.6 0 5.2 0.6 7.8 1.8l294.6 147.2c0.4 0.2 0.8 0.6 1.2 1 1.2 0.8 2 1.6 3 2.6s1.8 1.8 2.6 3c0.2 0.4 0.8 0.6 1 1.2l147.2 294.6c3.4 6.6 2 14.8-3.2 20-5.4 5.2-13.4 6.4-20 3.2zM330 187.8l113.2 226.4 113.2-113.2-226.4-113.2zM580.8 325.6l-113.2 113.2 226.4 113.2-113.2-226.4z" />
<glyph unicode="&#xe903;" glyph-name="diamond" d="M1023.8 615.8c0.2 0.6 0.2 1.4 0.2 2 0 0.8 0 1.6 0 2.4s-0.2 1.4-0.4 2c-0.2 0.8-0.4 1.6-0.8 2.4-0.2 0.4-0.2 0.8-0.4 1.2-0.2 0.2-0.4 0.6-0.6 0.8s-0.2 0.6-0.4 0.8l-170.6 273.6c-0.8 1.2-1.8 2.4-2.8 3.4 0 0 0 0 0 0-1.4 1.4-3.2 2.4-5 3.2-0.2 0.2-0.4 0.4-0.6 0.4s-0.4 0-0.6 0c-1.8 0.6-3.4 1-5.4 1h-648.8c-1.8 0-3.6-0.4-5.2-1-0.2 0-0.4 0-0.6 0s-0.4-0.2-0.6-0.4c-1.8-0.8-3.4-1.6-4.8-3 0 0-0.2-0.2-0.2-0.2-1-1-2-2.2-2.8-3.4l-170.8-273.2c-0.2-0.2-0.2-0.6-0.4-0.8s-0.4-0.6-0.6-0.8c-0.2-0.4-0.2-0.8-0.4-1.2-0.4-0.8-0.6-1.6-0.8-2.4-0.2-0.6-0.2-1.4-0.4-2.2 0-0.8 0-1.6 0-2.6 0-0.8 0.2-1.4 0.2-2 0.2-0.8 0.4-1.6 0.6-2.4 0.2-0.6 0.4-1.4 0.8-2 0.2-0.4 0.2-0.6 0.4-1s0.6-0.8 1-1.4c0.2-0.4 0.4-0.8 0.6-1l494.8-614.4c0 0 0 0 0.2-0.2v-0.2c0 0 0.2 0 0.2-0.2 1.4-1.6 3.2-3 5-4 0.6-0.2 1-0.6 1.6-0.8 2-0.8 4.2-1.4 6.6-1.4 2 0 4 0.4 5.8 1 0.2 0.2 0.4 0.4 0.8 0.4 0.8 0.4 1.6 1 2.4 1.4 1.2 0.8 2.6 1.6 3.6 2.8 0.2 0.2 0.6 0.4 0.8 0.6l495 615c0.2 0.4 0.4 0.8 0.6 1 0.4 0.4 0.8 0.8 1 1.4 0.2 0.4 0.2 0.6 0.4 1 0.4 0.6 0.6 1.2 0.8 2s0.4 1.6 0.6 2.4zM547.8 874.8h263.8l-82.8-222.8-181 222.8zM698 635.8h-372l186 229 186-229zM294 650.6l-82 224.2h264l-182-224.2zM710 601.6l-201-539.4-197.2 539.6h398.2zM840.2 853.4l136-217.6h-217l81 217.6zM183.6 853.2l79.4-217.4h-215.2l135.8 217.4zM275.6 601.6l185-506.4-408 506.4h223zM553 82.2l193.6 519.4h225l-418.6-519.4z" />
<glyph unicode="&#xe904;" glyph-name="download" d="M827.8 533.4c-29.8 145-157.8 256-315.8 256-123.8 0-230.4-68.2-281.6-170.6-132.2-17.2-230.4-123.8-230.4-256.2 0-140.8 115.2-256 256-256h554.6c119.4 0 213.4 93.8 213.4 213.4 0 111-89.6 204.8-196.2 213.4zM725.4 405.4l-213.4-213.4-213.4 213.4h128v170.6h170.6v-170.6h128.2z" />
<glyph unicode="&#xe905;" glyph-name="facebook" d="M768 959.8l-132.8 0.2c-149.2 0-245.6-99-245.6-252v-116.2h-133.6c-11.6 0-20.8-9.4-20.8-20.8v-168.4c0-11.6 9.4-20.8 20.8-20.8h133.6v-424.8c0-11.6 9.4-20.8 20.8-20.8h174.2c11.6 0 20.8 9.4 20.8 20.8v424.6h156.2c11.6 0 20.8 9.4 20.8 20.8v168.4c0 5.6-2.2 10.8-6.2 14.8s-9.2 6.2-14.8 6.2h-156.2v98.4c0 47.4 11.2 71.4 73 71.4h89.4c11.6 0 20.8 9.4 20.8 20.8v156.6c0.4 11.4-9 20.8-20.4 20.8z" />
<glyph unicode="&#xe906;" glyph-name="fingerprint" d="M504.8 508c-9.2-2.6-14.6-12.2-11.8-21.6 0.4-1.6 46.8-166.4 34-532.6-0.4-9.6 7.2-17.6 16.8-18 0.2 0 0.4 0 0.6 0 9.4 0 17 7.4 17.4 16.8 13 371.6-33.4 536.6-35.4 543.4-2.8 9.4-12.4 14.6-21.6 12zM941.2 674c-73.6 173.8-243 286-431.6 286-62.2 0-123-12.2-180.4-36.2-31.8-13.2-62-29-89.4-47-8-5.2-10.4-16-5.2-24s16-10.4 24-5.2c25.8 16.8 54 31.6 83.8 44 53.4 22.4 109.6 33.6 167.2 33.6 174.6 0 331.6-104 399.6-264.8 28.2-66.8 43.6-190 50.2-257.6 0.8-9 8.4-15.6 17.2-15.6 0.6 0 1.2 0 1.8 0 9.6 1 16.6 9.4 15.6 19-8.4 85-24.2 200.2-52.8 267.8zM188.4 791.4c6.8 6.8 6.8 17.8 0.2 24.6-6.8 6.8-17.8 6.8-24.6 0.2-93.4-92-186.4-263-99.2-555.4 2.2-7.6 9.2-12.4 16.6-12.4 1.6 0 3.2 0.2 5 0.8 9.2 2.8 14.4 12.4 11.6 21.6-65 218.2-33.8 398.4 90.4 520.6zM523 855.6c-53.2 2-104.8-7.4-153.6-27.8-170.4-71-260.8-258.2-210.6-435.4 5-17.8 10.2-36.6 13-55.4 6.2-42.6 6.6-120.8 6.6-244.8 0-9.6 7.8-17.4 17.4-17.4s17.4 7.8 17.4 17.4c0 129.4-0.4 204.8-7 249.8-3 20.8-8.6 41-13.8 59.8-45.4 160.4 36.4 329.6 190.4 393.8 44.2 18.4 91.2 26.8 139 25.2 123.4-4.4 263.4-113.2 305.6-237.6 36.6-107.6 36.8-290.8 32.2-456-0.2-9.6 7.4-17.6 16.8-17.8 9.4 0.2 17.6 7.2 17.8 16.8 4.6 168.2 4.2 355.2-34.2 468-47 139.4-198.4 256.4-337 261.4zM509.6 751.8c-18.8 0-37.6-2-55.8-6-9.4-2-15.2-11.4-13.2-20.6 2-9.4 11.2-15.2 20.6-13.2 15.8 3.4 32 5.2 48.4 5.2 90.8 0 172.4-54 207.8-137.8 42.2-99.6 45-259.6 35.2-538.6-0.4-9.6 7.2-17.6 16.8-18 0.2 0 0.4 0 0.6 0 9.4 0 17 7.4 17.4 16.8 10.2 290.2 7 447-38 553.2-40.8 96.6-135 159-239.8 159zM380.8 676.4c7.8 5.6 9.8 16.4 4.2 24.2-5.4 7.8-16.4 9.8-24.2 4.2-89.4-62.8-128.2-183.4-96.6-300.2 0.4-1.2 35.6-129.6 35.6-329.8 0-9.6 7.8-17.4 17.4-17.4s17.4 7.8 17.4 17.4c0 205-35.4 333.8-36.8 339-28 102.8 5.4 208.2 83 262.6zM681.6 126.8c0 9.6-7.6 17.4-17.2 17.4 0 0 0 0-0.2 0-9.6 0-17.2-7.6-17.4-17.2 0-13 0.4-32.2 0.8-52.6 0.6-30 1.4-63.8 0.6-85.6-0.4-9.6 7.2-17.6 16.8-18 0.2 0 0.4 0 0.6 0 9.4 0 17 7.4 17.4 16.8 0.8 22.8 0 57.2-0.6 87.6-0.4 20.2-0.8 38.8-0.8 51.6zM509.6 630.2c-18.4 0-36.4-3.6-53.4-10.8-67.6-28.2-100.4-104.4-76.4-177.2 13-39.6 24.2-247.6 24.2-454.2 0-9.6 7.8-17.4 17.4-17.4s17.4 7.8 17.4 17.4c0 185.8-9.8 416.4-25.8 465-18.2 55.4 6.2 113.2 56.8 134.4 12.8 5.4 26.2 8 40 8 42 0 79.6-25 96-63.6 32.4-76.6 42-215.6 44.4-318.6 0.2-9.4 8-17 17.4-17 0.2 0 0.2 0 0.4 0 9.6 0.2 17.2 8.2 17 17.8-2.4 106-12.6 249.4-47.2 331.4-22 51.6-72.2 84.8-128.2 84.8z" />
<glyph unicode="&#xe907;" glyph-name="flag" d="M797.2 533.4l181 263.4c3.6 5.2 4 12 1 17.6s-8.8 9.2-15.2 9.2h-512v68.2c0 9.4-7.6 17-17 17h-358.2v34.2c0 9.4-7.6 17-17 17s-17-7.6-17-17v-990c0-9.4 7.6-17 17-17s17 7.6 17 17v426.8h188.2c-10.8-14.4-17.6-32-17.6-51.2 0-47 38.2-85.4 85.4-85.4h631.4c6.4 0 12.2 3.6 15.2 9.2s2.6 12.4-1 17.6l-181.2 263.4zM76.8 874.6h341.4v-460.8h-341.4v460.8zM332.8 277.4c-28.2 0-51.2 23-51.2 51.2s23 51.2 51.2 51.2h102.4c9.4 0 17 7.6 17 17v392.6h479.6l-169.4-246.4c-4-5.8-4-13.6 0-19.4l169.4-246.4h-599z" />
<glyph unicode="&#xe908;" glyph-name="googleplus" d="M785.8 491.6h-366.6v-122.2h223.8c-33.4-106.2-132.6-183.4-250-183.4-144.6 0-262 117.2-262 262 0 144.6 117.2 262 262 262 72.8 0 138.8-29.8 186.2-77.8l88.8 96.4c-71 69.4-168 112.4-275 112.4-217 0-393-176-393-393s176-393 393-393c190 0 356.6 135 393 314.4l-0.2 122.2zM1024 491.8h-75v75h-64.4v-75h-75v-64.2h75v-75h64.4v75h75z" />
<glyph unicode="&#xe909;" glyph-name="home" d="M1015.2 492.8l-503.2 467.2-503.2-467.2c-7-6.6-7.6-17.8-1-24.8s17.8-7.4 24.8-1l58.2 54v-585h842.4v585.2l58.2-54c3.4-3.2 7.6-4.6 12-4.6 4.8 0 9.4 1.8 12.8 5.6 6.6 6.8 6 18-1 24.6zM406.8-29v280.8c0 58 47.2 105.2 105.2 105.2s105.2-47.2 105.2-105.2v-280.8h-210.4zM898-29h-245.6v280.8c0 77.4-63 140.4-140.4 140.4s-140.4-63-140.4-140.4v-280.8h-245.6v582.6l386 358.6 386-358.4v-582.8z" />
<glyph unicode="&#xe90a;" glyph-name="id-card" d="M952 823.4h-880c-39.6 0-72-32.2-72-72v-607c0-39.6 32.2-72 72-72h880c39.6 0 72 32.2 72 72v607c0 39.8-32.2 72-72 72zM989.8 144.6c0-20.8-17-37.8-37.8-37.8h-880c-20.8 0-37.8 17-37.8 37.8v606.8c0 20.8 17 37.8 37.8 37.8h880c20.8 0 37.8-17 37.8-37.8v-606.8zM386.4 341.4l-62 31.8v6.6c27.8 15.2 47.4 40.2 58.2 74.4 16.6 8.8 27.2 25.8 27.2 45v17c0 15.8-7.4 30.4-19.6 40-10.6 64.6-55.6 97.2-134 97.2-3.8 0-7.4-0.2-10.8-0.4-14.8-1.2-36.4 0-55 12.6-7 4.8-12.2 9.2-15.6 13.6-5.8 7.4-15.4 9.8-24 6.4-8.6-3.6-13.6-12-12.6-21.2 0.8-6.4 1.8-13.8 3.4-22 3.2-16.6 3.2-16.6-1.4-26.6-1.8-3.8-3.8-8.4-6.4-14.6-5.6-13.8-9.6-29-12-45.2-12.2-9.6-19.4-24.2-19.4-39.8v-17c0-19.2 10.6-36.2 27.2-45 11-34.4 30.4-59.4 58.2-74.4v-6.4l-64.4-31.8c-23.4-12.8-38-37.4-38-64.2v-22.6c0-13.8 0-45.8 170.6-45.8s170.6 32 170.6 45.8v21.2c0 28-15.4 53-40.2 65.4zM392.6 258.6c-10.6-6.4-54-15.4-136.6-15.4s-125.8 9-136.6 15.4v18.8c0 14.2 7.8 27.4 19.6 33.8l65.8 32.4c10.2 5 16.8 15.6 16.8 27.2v30.8l-10.4 4.4c-25.8 11.2-42.8 32.4-51.4 65l-2.4 9-9 2.8c-7.2 2.2-12.2 8.8-12.2 16.2v17c0 6.2 3.6 12 9.2 15l8 4.2 1 9c1.6 16 5.2 30.8 10.6 43.8 2.2 5.6 4.2 9.6 5.8 13 5.8 12.4 7.8 18.8 6.4 32 20-11.4 44.2-16.4 70.4-14.4 2.6 0.2 5.4 0.4 8.2 0.4 63.8 0 95-23.2 101.2-75l1-9 8-4.2c5.8-3 9.2-8.8 9.2-15v-17c0-7.4-5-14-12.2-16.2l-9-2.8-2.4-9c-8.8-32.6-25.6-54-51.4-65l-10.4-4.4v-31c0-11.4 6.4-21.8 16.4-26.8l64.4-33c13.2-6.6 21.6-20 21.6-34.8v-17.2zM512 567.4h170.6c9.4 0 17 7.6 17 17s-7.6 17-17 17h-170.6c-9.4 0-17-7.6-17-17s7.6-17 17-17zM751 567.4h17c9.4 0 17 7.6 17 17s-7.6 17-17 17h-17c-9.4 0-17-7.6-17-17-0.2-9.4 7.4-17 17-17zM529 311.4h-17c-9.4 0-17-7.6-17-17s7.6-17 17-17h17c9.4 0 17 7.6 17 17s-7.4 17-17 17zM631.4 311.4h-34.2c-9.4 0-17-7.6-17-17s7.6-17 17-17h34.2c9.4 0 17 7.6 17 17s-7.4 17-17 17zM716.8 311.4h-17c-9.4 0-17-7.6-17-17s7.6-17 17-17h17c9.4 0 17 7.6 17 17s-7.6 17-17 17zM819.2 311.4h-34.2c-9.4 0-17-7.6-17-17s7.6-17 17-17h34.2c9.4 0 17 7.6 17 17s-7.6 17-17 17zM875.4 306.6c-3-3.2-5-7.6-5-12.2s1.8-8.8 5-12.2c3.2-3 7.6-5 12.2-5 4.4 0 8.8 1.8 12.2 5 3 3.2 5 7.6 5 12.2s-1.8 8.8-5 12.2c-6.8 6.2-18.2 6.2-24.4 0zM887.4 499.2h-375.4c-9.4 0-17-7.6-17-17s7.6-17 17-17h375.4c9.4 0 17 7.6 17 17 0.2 9.4-7.4 17-17 17zM887.4 396.8h-375.4c-9.4 0-17-7.6-17-17s7.6-17 17-17h375.4c9.4 0 17 7.6 17 17 0.2 9.4-7.4 17-17 17z" />
<glyph unicode="&#xe90b;" glyph-name="layers" d="M844 551l180 102.8-512 290.8-512-290.8 180-102.8-180-102.2 180-102.8-180-102 512-292.6 512 292.6-180 102 180 102.8-180 102.2zM512 901.8l436.6-248-436.6-249.6-436.6 249.6 436.6 248zM217.6 529.6l294.4-168.2 294.4 168.2 142.2-80.8-436.6-249.6-436.6 249.6 142.2 80.8zM948.6 243.8l-436.6-249.4-436.6 249.4 142.2 80.8 294.4-168.2 294.4 168.2 142.2-80.8z" />
<glyph unicode="&#xe90c;" glyph-name="left-arrow" d="M334 797.2c14.4 14.4 37.2 14.4 51.6 0 14-14 14-37.2 0-51l-261.6-261.8h863.4c20.2 0 36.6-16 36.6-36.2s-16.6-36.6-36.6-36.6h-863.4l261.6-261.2c14-14.4 14-37.6 0-51.6-14.4-14.4-37.2-14.4-51.6 0l-323.6 323.6c-14 14-14 37.2 0 51l323.6 323.8z" />
<glyph unicode="&#xe90d;" glyph-name="list" d="M399.8 669.8h402.2c9.4 0 17 7.6 17 17s-7.6 17-17 17h-402.2c-9.4 0-17-7.6-17-17s7.6-17 17-17zM399.8 413.8h402.2c9.4 0 17 7.6 17 17s-7.6 17-17 17h-402.2c-9.4 0-17-7.6-17-17s7.6-17 17-17zM399.8 157.8h402.2c9.4 0 17 7.6 17 17s-7.6 17-17 17h-402.2c-9.4 0-17-7.6-17-17s7.6-17 17-17zM1007 960h-990c-9.4 0-17-7.6-17-17v-989.8c0-9.4 7.6-17 17-17h989.8c9.4 0 17 7.6 17 17v989.8c0.2 9.4-7.4 17-16.8 17zM989.8-29.8h-955.6v955.6h955.8v-955.6zM213.4 644.8l41.4 21.8 41.4-21.8-7.8 46 33.4 32.8-46.2 6.6-20.8 42-20.8-42-46.2-6.6 33.4-32.8zM213.4 387.2l41.4 21.8 41.4-21.8-7.8 46.2 33.4 32.8-46.2 6.6-20.8 42-20.8-42-46.2-6.6 33.4-32.8zM213.4 123.8l41.4 21.8 41.4-21.8-7.8 46 33.4 32.8-46.2 6.8-20.8 41.8-20.8-41.8-46.2-6.8 33.4-32.8z" />
<glyph unicode="&#xe90e;" glyph-name="multiply" d="M1024 913.4l-46.6 46.6-465.4-465.4-465.4 465.4-46.6-46.6 465.4-465.4-465.4-465.4 46.6-46.6 465.4 465.4 465.4-465.4 46.6 46.6-465.4 465.4z" />
<glyph unicode="&#xe90f;" glyph-name="notebook" d="M682.8 960h-665.8v-921.6h68.2v-100.2l68.2 45.4 68.2-45.4v100.2h460.8c37.6 0 68.2 30.6 68.2 68.2v785c0.4 37.8-30.2 68.4-67.8 68.4zM51.2 925.8h477.8v-256.2h-477.8v256.2zM529 362.4h-477.8v273.2h477.8v-273.2zM187.8 2l-34.2 22.8-34.2-22.8v36.4h68.2v-36.4zM221.8 72.6h-170.6v255.8h477.8v-255.8h-307.2zM563.2 72.6v853.2h51.2v-853.4h-51.2zM648.6 635.6h68.2v-273h-68.2v273zM716.8 106.6c0-18.8-15.2-34-34-34h-34.2v255.8h68.2v-221.8zM648.6 669.6v256.2h34.2c18.8 0 34-15.2 34-34v-222h-68.2zM956 960h-68.8c-28.2 0-51-22.8-51-51v-807l68.2-119.4v-29.6c0-9.4 7.6-17 17-17s17 7.6 17 17v29.6l68.2 119.4v807c0.4 28.2-22.6 51-50.6 51zM870.4 806.4h102.4v-34.2h-102.4v34.2zM921.6 21.6l-38.8 68h77.8l-39-68zM972.8 123.8h-102.4v614.4h102.4v-614.4zM870.4 840.6v68.4c0 9.2 7.6 16.8 16.8 16.8h68.8c9.2 0 16.8-7.6 16.8-16.8v-68.6h-102.4z" />
<glyph unicode="&#xe910;" glyph-name="notification" d="M1014.6 773.8c0 102.6-83.6 186.2-186.2 186.2-83.2 0-153.8-54.8-177.6-130.4h-544c-53.8 0-97.4-43.6-97.4-97.4v-698.8c0-53.8 43.8-97.4 97.4-97.4h698.8c53.8 0 97.4 43.8 97.4 97.4v569.8c65.6 28.8 111.6 94.4 111.6 170.6zM865.8 33.4c0-33.2-27-60.2-60.2-60.2h-698.8c-33.2 0-60.2 27-60.2 60.2v698.8c0 33.2 27 60.2 60.2 60.2h536.4c-0.6-6.2-1-12.4-1-18.6 0-102.6 83.6-186.2 186.2-186.2 12.8 0 25.2 1.4 37.2 3.8v-558zM878 633.4c-3.6-1.4-7.4-2.4-11.2-3.4-0.6-0.2-1.4-0.4-2-0.6-3.2-0.8-6.6-1.6-10-2.2-1.8-0.4-3.4-0.6-5.2-0.8-2.4-0.4-5-0.8-7.6-1-4.4-0.4-9-0.6-13.6-0.6-82.2 0-149 66.8-149 149 0 10.8 1.2 22 3.8 33 15 66.2 74.4 115.8 145.2 115.8 82.2 0 149-66.8 149-149 0-64.6-41.6-119.6-99.4-140.2z" />
<glyph unicode="&#xe911;" glyph-name="right-arrow" d="M689.6 797.2c-14 14.4-37.2 14.4-51.6 0-14-14-14-37.2 0-51l261.6-261.6h-863.4c-20.2-0.2-36.2-16.2-36.2-36.4s16-36.6 36.2-36.6h863.4l-261.6-261.2c-14-14.4-14-37.6 0-51.6 14.4-14.4 37.6-14.4 51.6 0l323.6 323.6c14.4 14 14.4 37.2 0 51l-323.6 323.8z" />
<glyph unicode="&#xe912;" glyph-name="star" d="M1001.8 494c20.2 19.6 27.2 48.4 18.6 75.2-8.8 26.8-31.4 46-59.2 50l-248 36c-10.6 1.6-19.6 8.2-24.4 17.8l-111 224.6c-12.4 25.2-37.8 41-65.8 41-28.2 0-53.4-15.6-65.8-41l-110.8-224.6c-4.8-9.6-13.8-16.2-24.4-17.8l-248-36c-27.8-4-50.6-23.2-59.2-50s-1.6-55.6 18.6-75.2l179.4-174.8c7.6-7.4 11.2-18.2 9.4-28.8l-42.6-247c-4.8-27.8 6.4-55.2 29.2-71.8s52.4-18.8 77.4-5.6l221.8 116.6c9.4 5 20.8 5 30.2 0l221.6-116.6c10.8-5.8 22.6-8.6 34.2-8.6 15.2 0 30.2 4.8 43.2 14.2 22.8 16.6 34 44 29.2 71.8l-42.4 247c-1.8 10.6 1.8 21.2 9.4 28.8l179.4 174.8zM772.6 283.4l42.4-247c2.2-12.4-2.6-24.2-12.8-31.8-10.2-7.4-23-8.4-34.2-2.4l-221.8 116.6c-10.6 5.6-22.4 8.4-34.2 8.4s-23.4-2.8-34.2-8.4l-221.8-116.6c-11.2-5.8-24-5-34.2 2.4s-15 19.2-12.8 31.8l42.4 247c4 23.8-3.8 48.2-21.2 65l-179.4 174.8c-9 8.8-12.2 21.2-8.2 33.2 3.8 12 13.6 20.2 26.2 22l248 36c24 3.4 44.6 18.4 55.4 40.2l110.8 224.6c5.6 11.4 16.4 18 29 18s23.4-6.8 29-18l111-224.4c10.6-21.6 31.4-36.8 55.2-40.2l248-36c12.4-1.8 22.2-10 26.2-22 3.8-12 0.8-24.4-8.2-33.2l-179.4-174.8c-17.4-17-25.2-41.4-21.2-65.2z" />
<glyph unicode="&#xe913;" glyph-name="twitter" d="M1024 765.4c-37.6-16.8-78.2-28-120.6-33 43.4 26 76.6 67.2 92.4 116.2-40.6-24-85.6-41.6-133.4-51-38.4 40.8-92.8 66.4-153.4 66.4-116 0-210-94-210-210 0-16.4 1.8-32.6 5.4-47.8-174.6 8.8-329.4 92.4-433 219.4-18.2-31-28.4-67-28.4-105.6 0-72.8 37.2-137.2 93.4-174.8-34.4 1.2-66.8 10.6-95.2 26.4v-2.6c0-101.8 72.4-186.6 168.4-206-17.6-4.8-36.2-7.4-55.4-7.4-13.6 0-26.6 1.4-39.6 4 26.8-83.6 104.4-144.2 196.2-145.8-71.8-56.4-162.4-89.8-260.8-89.8-17 0-33.6 1-50.2 2.8 93-59.8 203.4-94.6 322-94.6 386.4 0 597.6 320 597.6 597.6l-0.8 27.2c41.6 29.4 77.4 66.4 105.4 108.4z" />
<glyph unicode="&#xe914;" glyph-name="umbrella" d="M937.8 477.8c0.4 1.2 0.6 2.4 0.8 3.6 0 0.2 0.2 0.4 0.2 0.8 0 229.6-182.2 417.2-409.6 426.2v34.6c0 9.4-7.6 17-17 17s-17-7.6-17-17v-34.6c-227.6-9-409.8-196.8-409.8-426.2 0-0.2 0.2-0.4 0.2-0.8 0-1.2 0.4-2.4 0.8-3.6 0.2-1 0.4-2 0.8-3s1-1.6 1.6-2.4c0.8-1 1.4-2 2.4-2.8 0.2-0.2 0.2-0.4 0.4-0.6 0.6-0.6 1.4-0.6 2-1 1-0.6 2-1.2 3.2-1.6s2.4-0.6 3.6-0.8c0.8 0 1.4-0.4 2.2-0.4 0.2 0 0.4 0.2 0.8 0.2 1.2 0 2.6 0.4 3.8 0.8 1 0.2 1.8 0.4 2.6 0.8 1 0.4 1.8 1.2 2.6 1.8 1 0.6 1.8 1.4 2.6 2.2 0.2 0.2 0.4 0.2 0.6 0.6 24 29 55.8 45 89.2 45s65.2-16 89.2-45c0.4-0.4 0.8-0.6 1.2-1s0.6-1 1-1.4c0.6-0.6 1.6-0.8 2.2-1.2 0.8-0.6 1.6-1 2.6-1.4 1.4-0.6 2.8-0.8 4.2-1 0.6 0 1.2-0.4 1.8-0.4 0.2 0 0.6 0.2 0.8 0.2 0.8 0 1.6 0.2 2.6 0.4 1.2 0.2 2.4 0.6 3.4 1 0.8 0.4 1.6 0.8 2.4 1.4 0.6 0.4 1.2 0.6 1.8 1 0.4 0.4 0.6 0.8 1 1.2s1 0.6 1.2 1c24 29 55.8 45 89.2 45 31.8 0 61.8-14.6 85.4-40.8v-454.2c0-28.2-23-51.2-51.2-51.2s-51.2 23-51.2 51.2c0 9.4-7.6 17-17 17s-17-7.6-17-17c0-47 38.2-85.4 85.4-85.4s85.4 38.2 85.4 85.4v454.2c23.6 26.2 53.6 40.8 85.4 40.8 33.4 0 65.2-16 89.2-45 0.4-0.4 0.8-0.6 1.2-1s0.6-1 1-1.4c0.6-0.6 1.6-0.8 2.2-1.2 0.8-0.6 1.6-1 2.6-1.4 1.4-0.6 2.8-0.8 4.2-1 0.6 0 1.2-0.4 1.8-0.4 0.2 0 0.6 0.2 0.8 0.2 0.8 0 1.6 0.2 2.6 0.4 1.2 0.2 2.2 0.6 3.4 1 0.8 0.4 1.6 0.8 2.4 1.4 0.6 0.4 1.2 0.6 1.8 1 0.4 0.4 0.6 0.8 1 1.2s1 0.6 1.2 1c24 29 55.8 45 89.2 45s65.2-16 89.2-45c0.2-0.2 0.4-0.2 0.6-0.4 1.2-1.4 2.6-2.4 4.2-3.2 0.6-0.4 1-0.8 1.6-1 2-1 4.4-1.4 6.8-1.4v0 0c2 0 4.2 0.4 6.2 1.2 0.8 0.4 1.4 0.8 2.2 1.2s1.8 0.8 2.6 1.4c0.2 0.2 0.2 0.4 0.4 0.6 1 0.8 1.6 1.8 2.4 2.8 0.6 0.8 1.2 1.6 1.6 2.4 0.4 1 0.6 2 0.8 3zM819.2 550.4c-37.8 0-73.6-15.2-102.4-43.2-28.8 28-64.6 43.2-102.4 43.2s-73.6-15.2-102.4-43.2c-28.8 28-64.6 43.2-102.4 43.2s-73.6-15.2-102.4-43.2c-28.8 28-64.6 43.2-102.4 43.2-29.8 0-58.4-9.6-83.2-27.4 20.6 197.4 187.8 351.6 390.4 351.6s369.8-154.4 390.4-351.6c-24.8 17.8-53.4 27.4-83.2 27.4z" />
<glyph unicode="&#xe915;" glyph-name="worldwide" d="M802.2 869.4l0.8 0.6-22.6 14c-1.4 0.8-2.8 1.6-4 2.4-7.4 4.4-15 8.8-22.6 12.8-3.8 2-7.8 4-11.8 6-5.8 3-11.6 5.8-17.4 8.4-3.4 1.6-7 3.2-10.4 4.8-9.2 4-18.4 7.6-27.8 11-2 0.6-3.8 1.2-5.8 2-8.2 2.8-16.6 5.6-25 8-2.6 0.8-5.4 1.6-8 2.2-9.2 2.6-18.6 4.8-28.2 7-1 0.2-1.8 0.4-2.6 0.6-10.4 2.2-21.2 4-31.8 5.6-2.4 0.4-4.8 0.6-7 1-8.4 1-16.8 2-25.4 2.6-2.8 0.2-5.8 0.4-8.6 0.6-10.6 0.6-21.2 1-32 1-11.6 0-23.2-0.6-34.6-1.2-3-0.2-6-0.4-9-0.6-10.8-1-21.4-2-32-3.6-1-0.2-2.2-0.2-3.2-0.4-10.6-1.6-21.2-3.8-31.6-6-3.4-0.8-6.8-1.6-10.4-2.4-9.6-2.4-19-4.8-28.4-7.8-3-1-6-1.8-8.8-2.8-8.4-2.8-16.8-5.6-25-8.8-3.8-1.4-7.6-3-11.2-4.4-9.4-3.8-18.8-8-27.8-12.4-3-1.4-6-3-9-4.6-7.2-3.6-14.2-7.4-21-11.4-3.4-2-7-4-10.4-6-8.6-5.2-17.2-10.6-25.6-16.4-1.2-0.8-2.4-1.4-3.4-2.2l-9.4-6.4v-0.4c-127.8-93.2-211.2-244.2-211.2-414.2 0-282.4 229.6-512 512-512s512 229.6 512 512c0 174.6-88 329-221.8 421.4zM257.6 852.2c5.6 3.4 11 6.8 16.8 10 3.2 1.8 6.2 3.6 9.4 5.4 8 4.4 16 8.4 24 12.2 3.6 1.6 7 3.2 10.6 4.8 6 2.6 12 5.2 18 7.6 3.4 1.4 6.6 2.8 10 4 8.6 3.2 17.4 6.2 26.2 8.8 3.2 1 6.6 1.8 9.8 2.8 6.8 2 13.8 3.8 20.6 5.4 3.2 0.8 6.2 1.6 9.4 2.2 9.6 2 19.2 3.8 28.8 5.2 2.2 0.4 4.4 0.6 6.6 0.8 8.2 1 16.4 2 24.6 2.6 2.8 0.2 5.8 0.4 8.6 0.6 10.2 0.6 20.6 1 31 1 9 0 18-0.4 27-0.8 2.6-0.2 5.2-0.4 7.6-0.6 6.4-0.4 13-1 19.4-1.8 2.8-0.4 5.6-0.8 8.6-1 6.2-0.8 12.4-1.8 18.6-2.8 2.8-0.4 5.4-1 8.2-1.4 6.4-1.2 12.8-2.6 19.2-4 2.4-0.6 4.8-1 7-1.6 7.8-2 15.6-4.2 23.4-6.4 0.8-0.2 1.6-0.4 2.4-0.6 8.2-2.6 16.4-5.4 24.6-8.4 3.2-1.2 6.4-2.6 9.6-3.8 4.8-1.8 9.4-3.8 14-5.8 4-1.8 8-3.6 12-5.4 3.6-1.6 7.2-3.4 10.6-5.2 2.6-1.2 5.2-2.6 7.8-4-65.2-26.2-105.8-58.2-151-117.2-6.4-8.4-9.6-18.6-9.4-28.8-4 9.4-9.6 16.6-17.2 21.6-15.8 10.4-36.4 9.6-63.2-2.2l-4.8-0.6c-34.2-3.8-53-6-54.8-43.2-0.8-18.8 9.2-37.4 25.8-47.4 4.2-2.6 8.6-4.4 13-5.4 0.4-1.6 1.2-3.2 2.4-5l6.8-9.6 11 1.8c9.4 1.6 17.2 2 22.6 1.8-0.8-7.6 0.6-15.4 4-22.2 4.8-9.6 13-16.6 23-19.6 9.6-3 10.4-5.8 11.6-9.8 5.4-18.8 18-32.8 34.2-38.2 15.6-5.2 32.8-1.8 47.4 9.2 8.8 6.6 13.8 5.2 33-4 12.6-6 28-13.6 48.2-16.2 3.2-0.4 5-1.4 5.8-2 13.8-14.6 24.6-32.6 34.8-50.2 15.8-26.8 30.6-52.2 56.4-65.6 20-10.4-2.4-69.2-13.2-97.6-2.2-5.8-4.2-11-5.8-15.8-26-20-41.8-42.8-57.2-64.8-13.8-19.8-28-40.2-50-59-33.4-28.6-61.6-45.8-94.2-57.6-5.4-1.8-8.8 1.2-10.2 2.8-1.2 1.4-3.6 5.2-1 10 33.6 60.2 72.6 145.2 22.2 187-49.4 40.8-68 100.2-47.2 151.2 8.8 21.6-1 46-22.8 57.4-1.8 2.2-3.2 12.2-4 18.8-2 14.4-4.4 32.4-15 48-4.4 6.4-12.4 12.4-17.8 15-20.8 10.2-40.8 13.2-60.2 16-15.4 2.2-30 4.4-44.8 10-56.6 21.6-96.8 113.4-126.2 180.4-4.2 9.6-8.2 18.8-12.2 27.4 1.4 1.2 3.4 2.4 5.6 3.8zM512-29.8c-263.4 0-477.8 214.4-477.8 477.8 0 155 74.2 292.8 188.8 380.2 3-6.8 6.2-13.8 9.4-21 33.6-76.6 75.4-171.8 145.2-198.6 18.4-7 35.6-9.6 52.2-12 17.6-2.6 34-5 50.2-12.8 1.2-0.6 4-2.8 4.6-3.6 6-9 7.8-21.2 9.4-33.2 2.2-16.4 4.6-35.2 21.4-44 5.4-2.8 10.2-8.6 7.8-14.6-26.6-65-4.2-139.8 57-190.4 15.6-13 23.2-48.6-30.2-144-8.8-15.8-7-34.8 4.8-48.6 8.4-10 20.6-15.4 33-15.4 4.8 0 9.8 0.8 14.6 2.6 37 13.2 68.4 32.2 105 63.8 25.4 21.8 40.8 44 55.8 65.4 15.2 21.6 29.4 42.2 52.8 59.4 3.4 2.4 6 5.8 7.2 9.8 1.8 5.4 4.2 11.8 7 18.8 17.6 46 44 115.6-3 140-17 8.8-28.8 29-42.6 52.6-10.8 18.4-23 39-39.6 56.6-6.4 6.8-15.4 11-26.2 12.4-14.6 1.8-26.4 7.6-37.8 13-18.8 9-42 20.4-68.2 0.6-4-3-10-6-16-4-5.4 1.8-10 7.4-12.2 15.4-3.4 11.4-10.2 25.6-34.4 33-1 0.4-1.8 1-2.4 2.2-0.8 1.6-0.8 3.4 0 5.6 3.2 8.8 1.8 17.6-3.6 24.4-6 7.4-17 11.2-32.4 11.4-0.6 2.6-2 5.4-4.4 8l-10.4 9.4-11.6-6.8c-3-1.8-6.4-1.6-10.2 0.6-5.8 3.4-9.6 10.2-9.2 16.6 0.2 4 0.4 6.2 0.6 7.4 4.2 1.2 14.2 2.4 23.8 3.4l10.4 1.2 2.6 1.2c15.2 7 27.4 9.2 32.6 5.8 2-1.4 8.8-8 8-35.4l-0.4-15.2 15-2.2c19.4-3 34 0.8 43 11.2 9.4 10.6 11 26.6 5 47.2-0.8 3-0.2 6.6 2 9.4 47.2 61.4 86.8 89.8 162.2 115.8 132-85.2 219.6-233.4 219.6-401.8-0.6-264.2-215-478.6-478.4-478.6z" />
</font>
</defs>
</svg>
