<svg xmlns="http://www.w3.org/2000/svg" viewBox="0 0 512 512"><path d="M405.3 307.2H106.7c-4.7 0-8.5 3.8-8.5 8.5s3.8 8.5 8.5 8.5h298.7c4.7 0 8.5-3.8 8.5-8.5s-3.8-8.5-8.6-8.5zm-110.9-42.7h110.9c4.7 0 8.5-3.8 8.5-8.5s-3.8-8.5-8.5-8.5H294.4c-4.7 0-8.5 3.8-8.5 8.5s3.8 8.5 8.5 8.5zm0-59.7h110.9c4.7 0 8.5-3.8 8.5-8.5s-3.8-8.5-8.5-8.5H294.4c-4.7 0-8.5 3.8-8.5 8.5s3.8 8.5 8.5 8.5zm0-59.7h110.9c4.7 0 8.5-3.8 8.5-8.5s-3.8-8.5-8.5-8.5H294.4c-4.7 0-8.5 3.8-8.5 8.5s3.8 8.5 8.5 8.5zm110.9 264.5H106.7c-4.7 0-8.5 3.8-8.5 8.5s3.8 8.5 8.5 8.5h298.7c4.7 0 8.5-3.8 8.5-8.5s-3.8-8.5-8.6-8.5zm-298.6-34.1h119.5c4.7 0 8.5-3.8 8.5-8.5s-3.8-8.5-8.5-8.5H106.7c-4.7 0-8.5 3.8-8.5 8.5-.1 4.7 3.7 8.5 8.5 8.5zm298.6-17.1H294.4c-4.7 0-8.5 3.8-8.5 8.5s3.8 8.5 8.5 8.5h110.9c4.7 0 8.5-3.8 8.5-8.5.1-4.7-3.7-8.5-8.5-8.5zm-139 14.6c1.5-1.6 2.5-3.8 2.5-6.1 0-2.2-.9-4.4-2.5-6-3.2-3.2-9.1-3.2-12.1-.1-1.5 1.6-2.5 3.8-2.5 6.1 0 2.2.9 4.4 2.5 6.1 1.6 1.5 3.7 2.5 6.1 2.5 2.2 0 4.4-1 6-2.5z"/><path d="M465.1 34.1H251.7V8.5c0-4.7-3.8-8.5-8.5-8.5H106.7c-4.7 0-8.5 3.8-8.5 8.5v25.6H46.9c-4.7 0-8.5 3.8-8.5 8.5v460.8c0 4.7 3.8 8.5 8.5 8.5H465c4.7 0 8.5-3.8 8.5-8.5V42.7c.1-4.8-3.7-8.6-8.4-8.6zm-349.9 8.6V17.1h119.5v213.3l-54.6-41c-3-2.3-7.2-2.3-10.2 0l-54.6 41V42.7zm341.3 452.2h-401V51.2h42.7v196.3c0 3.2 1.8 6.2 4.7 7.6 2.9 1.4 6.4 1.1 8.9-.8l63.1-47.4 63.1 47.4c.7.5 1.5.9 2.3 1.2.3.1.6.1.9.2.5.1 1 .2 1.6.3.1 0 .2.1.4.1.1 0 .3-.1.4-.1 1.2-.1 2.3-.3 3.4-.8 2.9-1.5 4.7-4.4 4.7-7.6V51.2h204.8v443.7z"/></svg>