<svg xmlns="http://www.w3.org/2000/svg" viewBox="0 0 512 512"><path d="M252.4 226c-4.6 1.3-7.3 6.1-5.9 10.8.2.8 23.4 83.2 17 266.3-.2 4.8 3.6 8.8 8.4 9h.3c4.7 0 8.5-3.7 8.7-8.4 6.5-185.8-16.7-268.3-17.7-271.7-1.4-4.7-6.2-7.3-10.8-6zm218.2-83C433.8 56.1 349.1 0 254.8 0c-31.1 0-61.5 6.1-90.2 18.1-15.9 6.6-31 14.5-44.7 23.5-4 2.6-5.2 8-2.6 12s8 5.2 12 2.6c12.9-8.4 27-15.8 41.9-22C197.9 23 226 17.4 254.8 17.4c87.3 0 165.8 52 199.8 132.4 14.1 33.4 21.8 95 25.1 128.8.4 4.5 4.2 7.8 8.6 7.8h.9c4.8-.5 8.3-4.7 7.8-9.5-4.2-42.5-12.1-100.1-26.4-133.9zM94.2 84.3c3.4-3.4 3.4-8.9.1-12.3-3.4-3.4-8.9-3.4-12.3-.1-46.7 46-93.2 131.5-49.6 277.7 1.1 3.8 4.6 6.2 8.3 6.2.8 0 1.6-.1 2.5-.4 4.6-1.4 7.2-6.2 5.8-10.8C16.5 235.5 32.1 145.4 94.2 84.3z"/><path d="M261.5 52.2c-26.6-1-52.4 3.7-76.8 13.9C99.5 101.6 54.3 195.2 79.4 283.8c2.5 8.9 5.1 18.3 6.5 27.7 3.1 21.3 3.3 60.4 3.3 122.4 0 4.8 3.9 8.7 8.7 8.7 4.8 0 8.7-3.9 8.7-8.7 0-64.7-.2-102.4-3.5-124.9-1.5-10.4-4.3-20.5-6.9-29.9-22.7-80.2 18.2-164.8 95.2-196.9 22.1-9.2 45.6-13.4 69.5-12.6 61.7 2.2 131.7 56.6 152.8 118.8 18.3 53.8 18.4 145.4 16.1 228-.1 4.8 3.7 8.8 8.4 8.9 4.7-.1 8.8-3.6 8.9-8.4 2.3-84.1 2.1-177.6-17.1-234-23.5-69.7-99.2-128.2-168.5-130.7z"/><path d="M254.8 104.1c-9.4 0-18.8 1-27.9 3-4.7 1-7.6 5.7-6.6 10.3 1 4.7 5.6 7.6 10.3 6.6 7.9-1.7 16-2.6 24.2-2.6 45.4 0 86.2 27 103.9 68.9 21.1 49.8 22.5 129.8 17.6 269.3-.2 4.8 3.6 8.8 8.4 9h.3c4.7 0 8.5-3.7 8.7-8.4 5.1-145.1 3.5-223.5-19-276.6-20.4-48.3-67.5-79.5-119.9-79.5zm-64.4 37.7c3.9-2.8 4.9-8.2 2.1-12.1-2.7-3.9-8.2-4.9-12.1-2.1-44.7 31.4-64.1 91.7-48.3 150.1.2.6 17.8 64.8 17.8 164.9 0 4.8 3.9 8.7 8.7 8.7 4.8 0 8.7-3.9 8.7-8.7 0-102.5-17.7-166.9-18.4-169.5-14-51.4 2.7-104.1 41.5-131.3zm150.4 274.8c0-4.8-3.8-8.7-8.6-8.7h-.1c-4.8 0-8.6 3.8-8.7 8.6 0 6.5.2 16.1.4 26.3.3 15 .7 31.9.3 42.8-.2 4.8 3.6 8.8 8.4 9h.3c4.7 0 8.5-3.7 8.7-8.4.4-11.4 0-28.6-.3-43.8-.2-10.1-.4-19.4-.4-25.8z"/><path d="M254.8 164.9c-9.2 0-18.2 1.8-26.7 5.4-33.8 14.1-50.2 52.2-38.2 88.6C196.4 278.7 202 382.7 202 486c0 4.8 3.9 8.7 8.7 8.7 4.8 0 8.7-3.9 8.7-8.7 0-92.9-4.9-208.2-12.9-232.5-9.1-27.7 3.1-56.6 28.4-67.2 6.4-2.7 13.1-4 20-4 21 0 39.8 12.5 48 31.8 16.2 38.3 21 107.8 22.2 159.3.1 4.7 4 8.5 8.7 8.5h.2c4.8-.1 8.6-4.1 8.5-8.9-1.2-53-6.3-124.7-23.6-165.7-11-25.8-36.1-42.4-64.1-42.4z"/></svg>