<svg xmlns="http://www.w3.org/2000/svg" viewBox="0 0 512 512"><path d="M398.6 213.3l90.5-131.7c1.8-2.6 2-6 .5-8.8-1.5-2.8-4.4-4.6-7.6-4.6H226V34.1c0-4.7-3.8-8.5-8.5-8.5H38.4V8.5c0-4.7-3.8-8.5-8.5-8.5s-8.5 3.8-8.5 8.5v495c0 4.7 3.8 8.5 8.5 8.5s8.5-3.8 8.5-8.5V290.1h94.1c-5.4 7.2-8.8 16-8.8 25.6 0 23.5 19.1 42.7 42.7 42.7h315.7c3.2 0 6.1-1.8 7.6-4.6s1.3-6.2-.5-8.8l-90.6-131.7zM38.4 42.7h170.7v230.4H38.4V42.7zm128 298.6c-14.1 0-25.6-11.5-25.6-25.6 0-14.1 11.5-25.6 25.6-25.6h51.2c4.7 0 8.5-3.8 8.5-8.5V85.3h239.8l-84.7 123.2c-2 2.9-2 6.8 0 9.7l84.7 123.2H166.4z"/></svg>