<svg xmlns="http://www.w3.org/2000/svg" viewBox="0 0 512 512"><path d="M476 68.3H36c-19.8 0-36 16.1-36 36v303.5c0 19.8 16.1 36 36 36h440c19.8 0 36-16.1 36-36V104.3c0-19.9-16.1-36-36-36zm18.9 339.4c0 10.4-8.5 18.9-18.9 18.9H36c-10.4 0-18.9-8.5-18.9-18.9V104.3c0-10.4 8.5-18.9 18.9-18.9h440c10.4 0 18.9 8.5 18.9 18.9v303.4z"/><path d="M193.2 309.3l-31-15.9v-3.3c13.9-7.6 23.7-20.1 29.1-37.2 8.3-4.4 13.6-12.9 13.6-22.5v-8.5c0-7.9-3.7-15.2-9.8-20-5.3-32.3-27.8-48.6-67-48.6-1.9 0-3.7.1-5.4.2-7.4.6-18.2 0-27.5-6.3-3.5-2.4-6.1-4.6-7.8-6.8-2.9-3.7-7.7-4.9-12-3.2-4.3 1.8-6.8 6-6.3 10.6.4 3.2.9 6.9 1.7 11 1.6 8.3 1.6 8.3-.7 13.3-.9 1.9-1.9 4.2-3.2 7.3-2.8 6.9-4.8 14.5-6 22.6-6.1 4.8-9.7 12.1-9.7 19.9v8.5c0 9.6 5.3 18.1 13.6 22.5 5.5 17.2 15.2 29.7 29.1 37.2v3.2l-32.2 15.9c-11.7 6.4-19 18.7-19 32.1v11.3c0 6.9 0 22.9 85.3 22.9s85.3-16 85.3-22.9V342c0-14-7.7-26.5-20.1-32.7zm3.1 41.4c-5.3 3.2-27 7.7-68.3 7.7s-62.9-4.5-68.3-7.7v-9.4c0-7.1 3.9-13.7 9.8-16.9l32.9-16.2c5.1-2.5 8.4-7.8 8.4-13.6v-15.4l-5.2-2.2c-12.9-5.6-21.4-16.2-25.7-32.5l-1.2-4.5-4.5-1.4c-3.6-1.1-6.1-4.4-6.1-8.1V222c0-3.1 1.8-6 4.6-7.5l4-2.1.5-4.5c.8-8 2.6-15.4 5.3-21.9 1.1-2.8 2.1-4.8 2.9-6.5 2.9-6.2 3.9-9.4 3.2-16 10 5.7 22.1 8.2 35.2 7.2 1.3-.1 2.7-.2 4.1-.2 31.9 0 47.5 11.6 50.6 37.5l.5 4.5 4 2.1c2.9 1.5 4.6 4.4 4.6 7.5v8.5c0 3.7-2.5 7-6.1 8.1l-4.5 1.4-1.2 4.5c-4.4 16.3-12.8 27-25.7 32.5l-5.2 2.2v15.5c0 5.7 3.2 10.9 8.2 13.4l32.2 16.5c6.6 3.3 10.8 10 10.8 17.4v8.6zM256 196.3h85.3c4.7 0 8.5-3.8 8.5-8.5s-3.8-8.5-8.5-8.5H256c-4.7 0-8.5 3.8-8.5 8.5s3.8 8.5 8.5 8.5zm119.5 0h8.5c4.7 0 8.5-3.8 8.5-8.5s-3.8-8.5-8.5-8.5h-8.5c-4.7 0-8.5 3.8-8.5 8.5-.1 4.7 3.7 8.5 8.5 8.5zm-111 128H256c-4.7 0-8.5 3.8-8.5 8.5s3.8 8.5 8.5 8.5h8.5c4.7 0 8.5-3.8 8.5-8.5s-3.7-8.5-8.5-8.5zm51.2 0h-17.1c-4.7 0-8.5 3.8-8.5 8.5s3.8 8.5 8.5 8.5h17.1c4.7 0 8.5-3.8 8.5-8.5s-3.7-8.5-8.5-8.5zm42.7 0h-8.5c-4.7 0-8.5 3.8-8.5 8.5s3.8 8.5 8.5 8.5h8.5c4.7 0 8.5-3.8 8.5-8.5s-3.8-8.5-8.5-8.5zm51.2 0h-17.1c-4.7 0-8.5 3.8-8.5 8.5s3.8 8.5 8.5 8.5h17.1c4.7 0 8.5-3.8 8.5-8.5s-3.8-8.5-8.5-8.5zm28.1 2.4c-1.5 1.6-2.5 3.8-2.5 6.1s.9 4.4 2.5 6.1c1.6 1.5 3.8 2.5 6.1 2.5 2.2 0 4.4-.9 6.1-2.5 1.5-1.6 2.5-3.8 2.5-6.1s-.9-4.4-2.5-6.1c-3.4-3.1-9.1-3.1-12.2 0zm6-96.3H256c-4.7 0-8.5 3.8-8.5 8.5s3.8 8.5 8.5 8.5h187.7c4.7 0 8.5-3.8 8.5-8.5.1-4.7-3.7-8.5-8.5-8.5zm0 51.2H256c-4.7 0-8.5 3.8-8.5 8.5s3.8 8.5 8.5 8.5h187.7c4.7 0 8.5-3.8 8.5-8.5.1-4.7-3.7-8.5-8.5-8.5z"/></svg>