<svg xmlns="http://www.w3.org/2000/svg" viewBox="0 0 512 512"><path d="M199.9 145.1H401c4.7 0 8.5-3.8 8.5-8.5s-3.8-8.5-8.5-8.5H199.9c-4.7 0-8.5 3.8-8.5 8.5s3.8 8.5 8.5 8.5zm0 128H401c4.7 0 8.5-3.8 8.5-8.5s-3.8-8.5-8.5-8.5H199.9c-4.7 0-8.5 3.8-8.5 8.5s3.8 8.5 8.5 8.5zm0 128H401c4.7 0 8.5-3.8 8.5-8.5s-3.8-8.5-8.5-8.5H199.9c-4.7 0-8.5 3.8-8.5 8.5s3.8 8.5 8.5 8.5z"/><path d="M503.5 0H8.5C3.8 0 0 3.8 0 8.5v494.9c0 4.7 3.8 8.5 8.5 8.5h494.9c4.7 0 8.5-3.8 8.5-8.5V8.5c.1-4.7-3.7-8.5-8.4-8.5zm-8.6 494.9H17.1V17.1H495v477.8z"/><path d="M106.7 157.6l20.7-10.9 20.7 10.9-3.9-23 16.7-16.4-23.1-3.3-10.4-21-10.4 21-23.1 3.3 16.7 16.4zm0 128.8l20.7-10.9 20.7 10.9-3.9-23.1 16.7-16.4-23.1-3.3-10.4-21-10.4 21-23.1 3.3 16.7 16.4zm0 131.7l20.7-10.9 20.7 10.9-3.9-23 16.7-16.4-23.1-3.4-10.4-20.9-10.4 20.9-23.1 3.4 16.7 16.4z"/></svg>