<svg xmlns="http://www.w3.org/2000/svg" viewBox="0 0 512 512"><path d="M341.4 0H8.5v460.8h34.1v50.1l34.1-22.7 34.1 22.7v-50.1h230.4c18.8 0 34.1-15.3 34.1-34.1V34.2C375.5 15.3 360.2 0 341.4 0zM25.6 17.1h238.9v128.1H25.6V17.1zm238.9 281.7H25.6V162.2h238.9v136.6zM93.9 479l-17.1-11.4L59.7 479v-18.2h34.1V479zm17-35.3H25.6V315.8h238.9v127.9H110.9zm170.7 0V17.1h25.6v426.7h-25.6zm42.7-281.5h34.1v136.5h-34.1V162.2zm34.1 264.5c0 9.4-7.6 17-17 17h-17.1V315.8h34.1v110.9zm-34.1-281.5V17.1h17.1c9.4 0 17 7.6 17 17v111h-34.1zM478 0h-34.4c-14.1 0-25.5 11.4-25.5 25.5V429l34.1 59.7v14.8c0 4.7 3.8 8.5 8.5 8.5s8.5-3.8 8.5-8.5v-14.8l34.1-59.7V25.5C503.5 11.4 492 0 478 0zm-42.8 76.8h51.2v17.1h-51.2V76.8zm25.6 392.4l-19.4-34h38.9l-19.5 34zm25.6-51.1h-51.2V110.9h51.2v307.2zM435.2 59.7V25.5c0-4.6 3.8-8.4 8.4-8.4H478c4.6 0 8.4 3.8 8.4 8.4v34.3h-51.2z"/></svg>