<svg xmlns="http://www.w3.org/2000/svg" viewBox="0 0 512 512"><path d="M507.3 93.1c0-51.3-41.8-93.1-93.1-93.1-41.6 0-76.9 27.4-88.8 65.2h-272C26.5 65.2 4.7 87 4.7 113.9v349.4c0 26.9 21.9 48.7 48.7 48.7h349.4c26.9 0 48.7-21.9 48.7-48.7V178.4c32.8-14.4 55.8-47.2 55.8-85.3zm-74.4 370.2c0 16.6-13.5 30.1-30.1 30.1H53.4c-16.6 0-30.1-13.5-30.1-30.1V113.9c0-16.6 13.5-30.1 30.1-30.1h268.2c-.3 3.1-.5 6.2-.5 9.3 0 51.3 41.8 93.1 93.1 93.1 6.4 0 12.6-.7 18.6-1.9v279zm6.1-300c-1.8.7-3.7 1.2-5.6 1.7-.3.1-.7.2-1 .3-1.6.4-3.3.8-5 1.1-.9.2-1.7.3-2.6.4-1.2.2-2.5.4-3.8.5-2.2.2-4.5.3-6.8.3-41.1 0-74.5-33.4-74.5-74.5 0-5.4.6-11 1.9-16.5 7.5-33.1 37.2-57.9 72.6-57.9 41.1 0 74.5 33.4 74.5 74.5 0 32.3-20.8 59.8-49.7 70.1z"/></svg>