<svg xmlns="http://www.w3.org/2000/svg" viewBox="0 0 512 512"><path d="M500.9 233c10.1-9.8 13.6-24.2 9.3-37.6-4.4-13.4-15.7-23-29.6-25l-124-18c-5.3-.8-9.8-4.1-12.2-8.9L288.9 31.2C282.7 18.6 270 10.7 256 10.7c-14.1 0-26.7 7.8-32.9 20.5l-55.4 112.3c-2.4 4.8-6.9 8.1-12.2 8.9l-124 18c-13.9 2-25.3 11.6-29.6 25-4.3 13.4-.8 27.8 9.3 37.6l89.7 87.4c3.8 3.7 5.6 9.1 4.7 14.4L84.3 458.3c-2.4 13.9 3.2 27.6 14.6 35.9 11.4 8.3 26.2 9.4 38.7 2.8l110.9-58.3c4.7-2.5 10.4-2.5 15.1 0L374.4 497c5.4 2.9 11.3 4.3 17.1 4.3 7.6 0 15.1-2.4 21.6-7.1 11.4-8.3 17-22 14.6-35.9l-21.2-123.5c-.9-5.3.9-10.6 4.7-14.4l89.7-87.4zM386.3 338.3l21.2 123.5c1.1 6.2-1.3 12.1-6.4 15.9-5.1 3.7-11.5 4.2-17.1 1.2l-110.9-58.3c-5.3-2.8-11.2-4.2-17.1-4.2-5.9 0-11.7 1.4-17.1 4.2L128 478.9c-5.6 2.9-12 2.5-17.1-1.2-5.1-3.7-7.5-9.6-6.4-15.9l21.2-123.5c2-11.9-1.9-24.1-10.6-32.5l-89.7-87.4c-4.5-4.4-6.1-10.6-4.1-16.6 1.9-6 6.8-10.1 13.1-11l124-18c12-1.7 22.3-9.2 27.7-20.1l55.4-112.3c2.8-5.7 8.2-9 14.5-9 6.3 0 11.7 3.4 14.5 9L326 152.6c5.3 10.8 15.7 18.4 27.6 20.1l124 18c6.2.9 11.1 5 13.1 11 1.9 6 .4 12.2-4.1 16.6l-89.7 87.4c-8.7 8.5-12.6 20.7-10.6 32.6z"/></svg>