<svg xmlns="http://www.w3.org/2000/svg" viewBox="0 0 512 512"><path d="M512 97.3c-18.8 8.4-39.1 14-60.3 16.5 21.7-13 38.3-33.6 46.2-58.1-20.3 12-42.8 20.8-66.7 25.5C412 60.8 384.8 48 354.5 48c-58 0-105 47-105 105 0 8.2.9 16.3 2.7 23.9-87.3-4.4-164.7-46.2-216.5-109.7-9.1 15.5-14.2 33.5-14.2 52.8 0 36.4 18.6 68.6 46.7 87.4-17.2-.6-33.4-5.3-47.6-13.2v1.3c0 50.9 36.2 93.3 84.2 103-8.8 2.4-18.1 3.7-27.7 3.7-6.8 0-13.3-.7-19.8-2 13.4 41.8 52.2 72.1 98.1 72.9C119.5 401.3 74.2 418 25 418c-8.5 0-16.8-.5-25.1-1.4 46.5 29.9 101.7 47.3 161 47.3 193.2 0 298.8-160 298.8-298.8l-.4-13.6c20.8-14.7 38.7-33.2 52.7-54.2z"/></svg>