<svg xmlns="http://www.w3.org/2000/svg" viewBox="0 0 512 512"><path d="M468.9 241.1c.2-.6.3-1.2.4-1.8 0-.1.1-.2.1-.4 0-114.8-91.1-208.6-204.8-213.1V8.5c0-4.7-3.8-8.5-8.5-8.5s-8.5 3.8-8.5 8.5v17.3C133.8 30.3 42.7 124.2 42.7 238.9c0 .1.1.2.1.4 0 .6.2 1.2.4 1.8.1.5.2 1 .4 1.5s.5.8.8 1.2c.4.5.7 1 1.2 1.4.1.1.1.2.2.3.3.3.7.3 1 .5.5.3 1 .6 1.6.8.6.2 1.2.3 1.8.4.4 0 .7.2 1.1.2.1 0 .2-.1.4-.1.6 0 1.3-.2 1.9-.4.5-.1.9-.2 1.3-.4.5-.2.9-.6 1.3-.9.5-.3.9-.7 1.3-1.1.1-.1.2-.1.3-.3 12-14.5 27.9-22.5 44.6-22.5s32.6 8 44.6 22.5c.2.2.4.3.6.5.2.2.3.5.5.7.3.3.8.4 1.1.6.4.3.8.5 1.3.7.7.3 1.4.4 2.1.5.3 0 .6.2.9.2.1 0 .3-.1.4-.1.4 0 .8-.1 1.3-.2.6-.1 1.2-.3 1.7-.5.4-.2.8-.4 1.2-.7.3-.2.6-.3.9-.5.2-.2.3-.4.5-.6.2-.2.5-.3.6-.5 12-14.5 27.9-22.5 44.6-22.5 15.9 0 30.9 7.3 42.7 20.4v227.1c0 14.1-11.5 25.6-25.6 25.6-14.1 0-25.6-11.5-25.6-25.6 0-4.7-3.8-8.5-8.5-8.5s-8.5 3.8-8.5 8.5c0 23.5 19.1 42.7 42.7 42.7s42.7-19.1 42.7-42.7V242.2c11.8-13.1 26.8-20.4 42.7-20.4 16.7 0 32.6 8 44.6 22.5.2.2.4.3.6.5.2.2.3.5.5.7.3.3.8.4 1.1.6.4.3.8.5 1.3.7.7.3 1.4.4 2.1.5.3 0 .6.2.9.2.1 0 .3-.1.4-.1.4 0 .8-.1 1.3-.2.6-.1 1.1-.3 1.7-.5.4-.2.8-.4 1.2-.7.3-.2.6-.3.9-.5.2-.2.3-.4.5-.6.2-.2.5-.3.6-.5 12-14.5 27.9-22.5 44.6-22.5 16.7 0 32.6 8 44.6 22.5.1.1.2.1.3.2.6.7 1.3 1.2 2.1 1.6.3.2.5.4.8.5 1 .5 2.2.7 3.4.7 1 0 2.1-.2 3.1-.6.4-.2.7-.4 1.1-.6.4-.2.9-.4 1.3-.7.1-.1.1-.2.2-.3.5-.4.8-.9 1.2-1.4.3-.4.6-.8.8-1.2.2-.5.3-1 .4-1.5zm-59.3-36.3c-18.9 0-36.8 7.6-51.2 21.6-14.4-14-32.3-21.6-51.2-21.6s-36.8 7.6-51.2 21.6c-14.4-14-32.3-21.6-51.2-21.6s-36.8 7.6-51.2 21.6c-14.4-14-32.3-21.6-51.2-21.6-14.9 0-29.2 4.8-41.6 13.7C71.1 119.8 154.7 42.7 256 42.7s184.9 77.2 195.2 175.8c-12.4-8.9-26.7-13.7-41.6-13.7z"/></svg>