<svg xmlns="http://www.w3.org/2000/svg" viewBox="0 0 512 512"><path d="M401.1 45.3l.4-.3-11.3-7c-.7-.4-1.4-.8-2-1.2-3.7-2.2-7.5-4.4-11.3-6.4-1.9-1-3.9-2-5.9-3-2.9-1.5-5.8-2.9-8.7-4.2-1.7-.8-3.5-1.6-5.2-2.4-4.6-2-9.2-3.8-13.9-5.5-1-.3-1.9-.6-2.9-1-4.1-1.4-8.3-2.8-12.5-4-1.3-.4-2.7-.8-4-1.1-4.6-1.3-9.3-2.4-14.1-3.5-.5-.1-.9-.2-1.3-.3-5.2-1.1-10.6-2-15.9-2.8-1.2-.2-2.4-.3-3.5-.5-4.2-.5-8.4-1-12.7-1.3-1.4-.1-2.9-.2-4.3-.3-5.3-.3-10.6-.5-16-.5-5.8 0-11.6.3-17.3.6l-4.5.3c-5.4.5-10.7 1-16 1.8-.5.1-1.1.1-1.6.2-5.3.8-10.6 1.9-15.8 3-1.7.4-3.4.8-5.2 1.2-4.8 1.2-9.5 2.4-14.2 3.9-1.5.5-3 .9-4.4 1.4-4.2 1.4-8.4 2.8-12.5 4.4-1.9.7-3.8 1.5-5.6 2.2-4.7 1.9-9.4 4-13.9 6.2-1.5.7-3 1.5-4.5 2.3-3.6 1.8-7.1 3.7-10.5 5.7-1.7 1-3.5 2-5.2 3-4.3 2.6-8.6 5.3-12.8 8.2-.6.4-1.2.7-1.7 1.1l-4.7 3.2v.2C41.7 95.5 0 171 0 256c0 141.2 114.8 256 256 256s256-114.8 256-256c0-87.3-44-164.5-110.9-210.7zm-272.3 8.6c2.8-1.7 5.5-3.4 8.4-5 1.6-.9 3.1-1.8 4.7-2.7 4-2.2 8-4.2 12-6.1 1.8-.8 3.5-1.6 5.3-2.4 3-1.3 6-2.6 9-3.8 1.7-.7 3.3-1.4 5-2 4.3-1.6 8.7-3.1 13.1-4.4 1.6-.5 3.3-.9 4.9-1.4 3.4-1 6.9-1.9 10.3-2.7 1.6-.4 3.1-.8 4.7-1.1 4.8-1 9.6-1.9 14.4-2.6 1.1-.2 2.2-.3 3.3-.4 4.1-.5 8.2-1 12.3-1.3 1.4-.1 2.9-.2 4.3-.3 5.1-.3 10.3-.5 15.5-.5 4.5 0 9 .2 13.5.4 1.3.1 2.6.2 3.8.3 3.2.2 6.5.5 9.7.9 1.4.2 2.8.4 4.3.5 3.1.4 6.2.9 9.3 1.4 1.4.2 2.7.5 4.1.7 3.2.6 6.4 1.3 9.6 2 1.2.3 2.4.5 3.5.8 3.9 1 7.8 2.1 11.7 3.2l1.2.3c4.1 1.3 8.2 2.7 12.3 4.2 1.6.6 3.2 1.3 4.8 1.9 2.4.9 4.7 1.9 7 2.9l6 2.7c1.8.8 3.6 1.7 5.3 2.6 1.3.6 2.6 1.3 3.9 2-32.6 13.1-52.9 29.1-75.5 58.6-3.2 4.2-4.8 9.3-4.7 14.4-2-4.7-4.8-8.3-8.6-10.8-7.9-5.2-18.2-4.8-31.6 1.1l-2.4.3c-17.1 1.9-26.5 3-27.4 21.6-.4 9.4 4.6 18.7 12.9 23.7 2.1 1.3 4.3 2.2 6.5 2.7.2.8.6 1.6 1.2 2.5l3.4 4.8 5.5-.9c4.7-.8 8.6-1 11.3-.9-.4 3.8.3 7.7 2 11.1 2.4 4.8 6.5 8.3 11.5 9.8 4.8 1.5 5.2 2.9 5.8 4.9 2.7 9.4 9 16.4 17.1 19.1 7.8 2.6 16.4.9 23.7-4.6 4.4-3.3 6.9-2.6 16.5 2 6.3 3 14 6.8 24.1 8.1 1.6.2 2.5.7 2.9 1 6.9 7.3 12.3 16.3 17.4 25.1 7.9 13.4 15.3 26.1 28.2 32.8 10 5.2-1.2 34.6-6.6 48.8-1.1 2.9-2.1 5.5-2.9 7.9-13 10-20.9 21.4-28.6 32.4-6.9 9.9-14 20.1-25 29.5-16.7 14.3-30.8 22.9-47.1 28.8-2.7.9-4.4-.6-5.1-1.4-.6-.7-1.8-2.6-.5-5 16.8-30.1 36.3-72.6 11.1-93.5-24.7-20.4-34-50.1-23.6-75.6 4.4-10.8-.5-23-11.4-28.7-.9-1.1-1.6-6.1-2-9.4-1-7.2-2.2-16.2-7.5-24-2.2-3.2-6.2-6.2-8.9-7.5-10.4-5.1-20.4-6.6-30.1-8-7.7-1.1-15-2.2-22.4-5-28.3-10.8-48.4-56.7-63.1-90.2-2.1-4.8-4.1-9.4-6.1-13.7.7-.6 1.7-1.2 2.8-1.9zm127.2 441C124.3 494.9 17.1 387.7 17.1 256c0-77.5 37.1-146.4 94.4-190.1 1.5 3.4 3.1 6.9 4.7 10.5 16.8 38.3 37.7 85.9 72.6 99.3 9.2 3.5 17.8 4.8 26.1 6 8.8 1.3 17 2.5 25.1 6.4.6.3 2 1.4 2.3 1.8 3 4.5 3.9 10.6 4.7 16.6 1.1 8.2 2.3 17.6 10.7 22 2.7 1.4 5.1 4.3 3.9 7.3-13.3 32.5-2.1 69.9 28.5 95.2 7.8 6.5 11.6 24.3-15.1 72-4.4 7.9-3.5 17.4 2.4 24.3 4.2 5 10.3 7.7 16.5 7.7 2.4 0 4.9-.4 7.3-1.3 18.5-6.6 34.2-16.1 52.5-31.9 12.7-10.9 20.4-22 27.9-32.7 7.6-10.8 14.7-21.1 26.4-29.7 1.7-1.2 3-2.9 3.6-4.9.9-2.7 2.1-5.9 3.5-9.4 8.8-23 22-57.8-1.5-70-8.5-4.4-14.4-14.5-21.3-26.3-5.4-9.2-11.5-19.5-19.8-28.3-3.2-3.4-7.7-5.5-13.1-6.2-7.3-.9-13.2-3.8-18.9-6.5-9.4-4.5-21-10.2-34.1-.3-2 1.5-5 3-8 2-2.7-.9-5-3.7-6.1-7.7-1.7-5.7-5.1-12.8-17.2-16.5-.5-.2-.9-.5-1.2-1.1-.4-.8-.4-1.7 0-2.8 1.6-4.4.9-8.8-1.8-12.2-3-3.7-8.5-5.6-16.2-5.7-.3-1.3-1-2.7-2.2-4l-5.2-4.7-5.8 3.4c-1.5.9-3.2.8-5.1-.3-2.9-1.7-4.8-5.1-4.6-8.3.1-2 .2-3.1.3-3.7 2.1-.6 7.1-1.2 11.9-1.7l5.2-.6 1.3-.6c7.6-3.5 13.7-4.6 16.3-2.9 1 .7 4.4 4 4 17.7l-.2 7.6 7.5 1.1c9.7 1.5 17-.4 21.5-5.6 4.7-5.3 5.5-13.3 2.5-23.6-.4-1.5-.1-3.3 1-4.7 23.6-30.7 43.4-44.9 81.1-57.9 66 42.6 109.8 116.7 109.8 200.9-.3 132.1-107.5 239.3-239.2 239.3z"/></svg>